<?xml version="1.0" standalone="no"?>
<!DOCTYPE svg PUBLIC "-//W3C//DTD SVG 20010904//EN"
 "http://www.w3.org/TR/2001/REC-SVG-20010904/DTD/svg10.dtd">
<svg version="1.0" xmlns="http://www.w3.org/2000/svg"
 width="1080.000000pt" height="1080.000000pt" viewBox="0 0 1080.000000 1080.000000"
 preserveAspectRatio="xMidYMid meet">

<g transform="translate(0.000000,1080.000000) scale(0.100000,-0.100000)"
fill="#000000" stroke="none">
<path d="M252 5883 c3 -991 4 -999 26 -1099 97 -442 377 -728 817 -836 89 -22
98 -22 1102 -25 l1013 -4 0 963 c0 806 -3 979 -15 1063 -78 516 -424 851 -952
920 -94 12 -276 15 -1054 15 l-940 0 3 -997z m1368 -489 l0 -1027 -192 6
c-214 6 -265 16 -388 74 -57 27 -93 54 -150 112 -86 87 -130 165 -160 285 -19
76 -20 112 -20 828 l0 748 455 0 455 0 0 -1026z m623 442 c205 -40 361 -156
443 -333 60 -128 64 -162 64 -669 l1 -456 -177 2 c-189 1 -263 12 -359 55
-160 70 -269 192 -332 370 l-28 80 -3 483 -3 482 160 0 c96 0 189 -6 234 -14z"/>
<path d="M5597 6525 c-50 -28 -62 -97 -24 -140 16 -20 35 -28 68 -32 38 -4 50
-1 77 22 27 22 32 34 32 69 0 32 -6 48 -24 65 -31 29 -92 36 -129 16z"/>
<path d="M6400 6304 l0 -166 -34 30 c-46 40 -97 56 -181 56 -103 0 -166 -25
-236 -93 -77 -76 -103 -144 -97 -256 10 -179 130 -302 305 -313 90 -6 151 10
209 55 l44 33 0 -40 0 -40 80 0 80 0 0 450 0 450 -85 0 -85 0 0 -166z m-99
-237 c63 -34 104 -102 104 -176 0 -68 -23 -112 -84 -158 -38 -30 -49 -33 -110
-33 -56 0 -74 4 -109 27 -48 31 -92 107 -92 158 0 152 159 251 291 182z"/>
<path d="M7460 6020 l0 -450 85 0 85 0 0 450 0 450 -85 0 -85 0 0 -450z"/>
<path d="M7770 6020 l0 -450 80 0 80 0 0 42 0 42 28 -27 c41 -39 121 -67 193
-67 143 0 248 65 308 190 22 47 26 68 26 145 -1 77 -5 98 -29 147 -33 70 -106
137 -179 164 -105 39 -248 18 -314 -45 l-23 -22 0 166 0 165 -85 0 -85 0 0
-450z m446 49 c102 -49 142 -181 84 -277 -11 -17 -38 -45 -61 -62 -36 -26 -51
-30 -106 -30 -74 0 -107 14 -151 64 -140 160 43 398 234 305z"/>
<path d="M3900 5995 l0 -425 85 0 85 0 0 170 0 170 210 0 210 0 0 -170 0 -170
90 0 90 0 0 425 0 425 -90 0 -90 0 0 -175 0 -175 -210 0 -210 0 0 175 0 175
-85 0 -85 0 0 -425z"/>
<path d="M5021 6215 c-144 -40 -230 -150 -239 -305 -8 -148 48 -254 165 -312
65 -32 72 -33 188 -33 130 0 176 13 253 71 l33 26 -53 48 c-49 45 -55 47 -73
34 -54 -38 -82 -47 -150 -48 -91 0 -146 29 -181 97 l-15 27 252 0 251 0 -4 88
c-5 109 -37 181 -104 241 -79 69 -214 96 -323 66z m177 -139 c35 -18 68 -54
81 -88 l11 -28 -170 0 c-94 0 -170 2 -170 5 0 31 59 97 100 114 37 15 117 13
148 -3z"/>
<path d="M6925 6217 c-68 -18 -104 -38 -152 -87 -62 -61 -86 -119 -91 -216 -8
-155 45 -257 165 -316 58 -28 78 -33 162 -36 69 -3 112 1 152 12 56 17 149 69
149 84 0 4 -22 29 -49 56 l-48 48 -46 -33 c-40 -28 -54 -32 -114 -33 -89 -1
-140 21 -177 77 l-27 42 251 3 250 2 0 63 c-1 204 -113 328 -310 342 -37 3
-87 -1 -115 -8z m175 -142 c34 -17 80 -74 80 -98 0 -15 -18 -17 -165 -17 -127
0 -165 3 -165 13 0 13 24 52 47 75 39 40 150 55 203 27z"/>
<path d="M8820 6216 c-75 -22 -97 -34 -140 -72 -80 -72 -117 -170 -107 -284 8
-90 38 -159 96 -213 70 -65 123 -82 261 -82 124 0 172 14 247 71 l34 26 -50
49 -49 49 -51 -32 c-45 -27 -60 -31 -124 -32 -93 0 -148 29 -183 97 l-15 27
251 0 250 0 0 75 c0 105 -28 175 -94 241 -34 32 -70 57 -102 68 -67 23 -169
29 -224 12z m181 -147 c29 -14 46 -32 59 -62 l19 -42 -166 -3 c-91 -1 -168 -1
-170 2 -7 7 23 59 49 83 50 47 141 57 209 22z"/>
<path d="M10079 6217 c-150 -43 -242 -162 -243 -317 -1 -106 25 -170 94 -241
75 -77 143 -103 255 -97 81 5 146 28 174 62 25 30 34 18 27 -36 -15 -109 -81
-163 -196 -162 -70 1 -147 28 -186 65 l-21 20 -51 -53 c-47 -49 -50 -54 -35
-71 26 -28 133 -76 198 -88 33 -6 96 -9 141 -6 143 8 248 80 293 201 20 54 21
74 21 386 l0 330 -80 0 -80 0 0 -37 0 -36 -23 21 c-59 56 -198 84 -288 59z
m196 -146 c188 -85 130 -371 -75 -373 -60 0 -86 8 -128 39 -90 67 -98 219 -16
294 66 61 143 75 219 40z"/>
<path d="M5570 5890 l0 -320 83 0 82 0 0 320 0 320 -82 0 -83 0 0 -320z"/>
<path d="M9502 6188 c-55 -27 -116 -97 -131 -150 -7 -25 -13 -132 -14 -256
l-2 -212 83 0 82 0 0 188 c0 103 5 204 10 224 17 60 55 80 166 86 l94 5 0 68
0 69 -122 0 c-103 -1 -130 -4 -166 -22z"/>
<path d="M7689 5327 c-45 -34 -52 -105 -14 -142 19 -20 34 -25 72 -25 60 0 90
20 99 64 13 71 -24 116 -95 116 -25 0 -53 -6 -62 -13z"/>
<path d="M8810 4820 l0 -451 80 3 80 3 3 448 2 447 -82 0 -83 0 0 -450z"/>
<path d="M3900 4800 l0 -430 85 0 85 0 2 278 3 277 118 -172 118 -173 39 0 39
0 118 173 118 172 3 -277 2 -278 85 0 85 0 0 430 0 430 -74 0 c-50 0 -79 -5
-88 -14 -7 -7 -74 -104 -148 -214 -74 -111 -137 -201 -140 -201 -3 0 -69 96
-148 214 l-142 215 -80 0 -80 0 0 -430z"/>
<path d="M5880 5110 l0 -90 -80 0 -80 0 0 -75 0 -75 80 0 80 0 0 -162 c0 -185
10 -219 73 -275 50 -43 93 -55 215 -57 l107 -1 3 73 3 72 -68 1 c-151 1 -173
29 -173 222 l0 127 120 0 120 0 0 75 0 75 -120 0 -120 0 0 90 0 90 -80 0 -80
0 0 -90z"/>
<path d="M5150 5018 c-63 -17 -142 -79 -178 -138 -44 -75 -55 -121 -49 -212 4
-58 12 -89 33 -128 64 -119 197 -190 326 -176 68 7 134 33 162 65 28 31 36 26
36 -19 l0 -41 78 3 77 3 3 323 2 322 -80 0 -80 0 0 -40 c0 -22 -2 -40 -4 -40
-2 0 -18 13 -35 29 -17 16 -52 36 -78 45 -51 17 -157 20 -213 4z m247 -164
c55 -45 76 -86 77 -153 0 -107 -71 -189 -173 -199 -218 -21 -303 250 -116 370
24 15 44 18 102 16 63 -3 76 -7 110 -34z"/>
<path d="M6556 5006 c-86 -36 -133 -81 -174 -166 -22 -47 -26 -68 -26 -145 0
-97 18 -154 70 -222 97 -128 365 -149 523 -41 l43 30 -53 54 c-53 53 -53 54
-74 34 -33 -31 -90 -50 -150 -50 -70 0 -112 17 -153 64 -58 67 -61 66 212 66
l244 0 7 28 c9 43 -12 158 -40 211 -51 102 -142 153 -280 158 -78 3 -98 0
-149 -21z m233 -135 c30 -21 57 -58 66 -88 l6 -23 -171 0 c-160 0 -172 1 -166
18 12 30 49 79 70 93 51 31 151 32 195 0z"/>
<path d="M8162 5012 c-72 -26 -141 -87 -177 -157 -25 -49 -31 -72 -33 -146 -4
-78 -1 -94 23 -146 44 -97 120 -163 218 -189 98 -26 193 -11 263 42 24 19 46
34 49 34 3 0 5 -18 5 -40 l0 -41 78 3 77 3 3 323 2 322 -80 0 -80 0 0 -40 c0
-22 -2 -40 -4 -40 -3 0 -17 11 -31 24 -46 43 -95 60 -180 63 -59 3 -94 -2
-133 -15z m264 -158 c83 -67 102 -173 48 -261 -83 -133 -279 -121 -345 22 -40
86 -8 195 73 248 39 26 50 28 115 25 62 -3 76 -7 109 -34z"/>
<path d="M9241 5011 c-64 -22 -98 -47 -129 -92 -20 -29 -23 -43 -20 -98 4 -59
7 -66 45 -102 43 -40 120 -68 285 -104 75 -16 108 -37 108 -68 0 -32 -40 -47
-127 -47 -87 0 -157 18 -206 53 l-29 20 -51 -52 -52 -52 25 -20 c101 -82 317
-111 468 -63 98 32 152 115 136 208 -13 80 -99 136 -262 170 -114 24 -148 35
-167 57 -41 44 35 85 141 75 64 -5 101 -18 147 -49 l29 -20 51 51 c58 58 57
64 -18 101 -108 54 -270 68 -374 32z"/>
<path d="M7345 5013 c-79 -17 -141 -63 -175 -130 -24 -46 -25 -56 -28 -281
l-3 -233 81 3 82 3 -1 180 c-1 201 6 247 43 284 23 23 35 26 126 29 l100 4 0
74 0 74 -102 -1 c-57 -1 -112 -3 -123 -6z"/>
<path d="M7670 4695 l0 -325 80 0 80 0 0 325 0 325 -80 0 -80 0 0 -325z"/>
</g>
</svg>
